<svg xmlns="http://www.w3.org/2000/svg" xmlns:xlink="http://www.w3.org/1999/xlink" width="1080" zoomAndPan="magnify" viewBox="0 0 810 809.999993" height="1080" preserveAspectRatio="xMidYMid meet" version="1.0"><defs><clipPath id="1b7d741b62"><path d="M 19.238281 19.59375 L 790.988281 19.59375 L 790.988281 790.59375 L 19.238281 790.59375 Z M 19.238281 19.59375 " clip-rule="nonzero"/></clipPath></defs><g clip-path="url(#1b7d741b62)"><path fill="#d25700" d="M 404.570312 19.59375 C 194.359375 19.589844 19.597656 192.699219 19.527344 400.992188 C 19.449219 618.449219 189.867188 790.578125 405.253906 790.59375 C 617.675781 790.609375 790.375 618.027344 790.621094 405.492188 C 790.863281 193.148438 617.246094 19.597656 404.570312 19.59375 Z M 715.246094 364.386719 C 715.101562 363.707031 715.03125 363.011719 714.894531 362.332031 C 713.816406 357 709.125 349.214844 712.324219 346.957031 C 716.96875 343.679688 723.300781 349.71875 728.9375 351.632812 C 732.828125 352.953125 736.28125 355.527344 740.109375 357.09375 C 745.640625 359.355469 749.132812 362.464844 746.480469 368.515625 C 745.40625 395.320312 742.660156 421.464844 736.765625 447.207031 C 736.226562 449.558594 735.050781 451.855469 734.964844 454.203125 C 734.8125 458.5 731.5625 459.785156 728.738281 459.714844 C 724.480469 459.605469 726.121094 455.457031 726.113281 453.152344 C 725.988281 423.125 721.53125 393.648438 715.246094 364.386719 Z M 225.738281 673.890625 C 226.171875 672.976562 226.601562 672.0625 227.03125 671.148438 C 243.953125 673.523438 260.875 675.894531 280.5625 678.652344 C 267.589844 682.800781 257.3125 687.6875 246.585938 689.066406 C 235.953125 690.429688 232.753906 679.042969 225.738281 673.890625 Z M 240.144531 710.5 C 246.226562 720.109375 252.855469 729.367188 260.660156 740.871094 C 244.539062 734.613281 231.757812 727.785156 218.964844 720.957031 C 214.015625 718.3125 214.601562 715.4375 217.808594 712.015625 C 219.234375 710.503906 220.648438 708.960938 222.226562 707.613281 C 232.554688 698.785156 232.875 699.015625 240.144531 710.5 Z M 228.511719 666.503906 C 224.105469 665.671875 222.132812 663.335938 220.71875 659.378906 C 209.457031 627.8125 202.527344 595.28125 198.871094 562.03125 C 197.695312 551.316406 197.394531 540.507812 196.292969 529.785156 C 195.695312 523.960938 197.03125 520.980469 203.523438 520.042969 C 218.628906 517.871094 233.730469 515.402344 248.601562 512.027344 C 256.332031 510.273438 258.234375 514.042969 259.523438 519.847656 C 264.613281 542.777344 271.457031 565.210938 279.066406 587.398438 C 287.722656 612.628906 297.578125 637.378906 309.6875 661.199219 C 315.585938 672.808594 315.425781 672.894531 302.832031 675.257812 C 301.128906 675.578125 299.417969 675.863281 298.089844 676.097656 C 274.582031 673.195312 251.417969 670.84375 228.511719 666.503906 Z M 83.632812 357.402344 C 84.328125 375.84375 85.035156 394.28125 88.472656 412.472656 C 91.308594 427.480469 94.320312 442.453125 97.121094 457.46875 C 97.539062 459.707031 100.117188 462.183594 97.820312 464.21875 C 95.765625 466.035156 93.40625 464.234375 91.191406 463.226562 C 84.261719 460.082031 77.296875 456.992188 70.230469 454.179688 C 64.109375 451.746094 61.535156 447.625 63.128906 441.125 C 64.894531 413.875 67.773438 386.730469 73.765625 360.007812 C 74.0625 358.671875 74.957031 357.472656 75.273438 356.136719 C 76.027344 352.992188 77.914062 350.945312 81.117188 351.429688 C 84.542969 351.945312 83.550781 355.21875 83.632812 357.402344 Z M 87.972656 325.492188 C 87.207031 305.050781 98.511719 286.730469 106.898438 267.492188 C 108.445312 263.9375 110.617188 263.402344 114.320312 265.210938 C 145.074219 280.238281 177.804688 289.066406 211.164062 296 C 213.707031 296.527344 219.148438 295.042969 218.359375 301.035156 C 217.769531 305.542969 217.324219 309.394531 211.0625 310.519531 C 180.820312 315.957031 150.550781 321.390625 121.210938 330.84375 C 113.320312 333.386719 105.089844 335.246094 97.679688 338.804688 C 88.261719 343.332031 87.117188 339.214844 87.953125 331.371094 C 88.101562 329.992188 87.972656 328.585938 87.972656 325.492188 Z M 583.542969 139.792969 C 566.394531 137.296875 549.789062 134.882812 533.179688 132.464844 C 533.210938 131.898438 533.238281 131.332031 533.269531 130.769531 C 542.429688 127.824219 551.566406 124.789062 560.765625 121.964844 C 568.25 119.664062 577.648438 126.867188 583.542969 139.792969 Z M 569.117188 99.296875 C 563.257812 90.085938 556.914062 81.1875 549.535156 70.308594 C 565.898438 76.085938 579.175781 83.308594 592.328125 90.769531 C 595.535156 92.589844 595.230469 95.125 592.847656 97.617188 C 591.648438 98.875 590.566406 100.246094 589.320312 101.453125 C 578.394531 112.054688 577.0625 111.785156 569.117188 99.296875 Z M 580.464844 144.019531 C 585.429688 144.863281 587.480469 147.058594 589.066406 151.429688 C 600.828125 183.910156 607.671875 217.464844 611.28125 251.730469 C 612.335938 261.746094 612.621094 271.84375 613.65625 281.859375 C 614.191406 287 612.375 289.699219 607.390625 290.582031 C 590.996094 293.480469 574.570312 296.230469 558.234375 299.441406 C 551.492188 300.765625 551.582031 295.472656 550.777344 292.066406 C 545.238281 268.550781 538.359375 245.429688 530.507812 222.609375 C 521.851562 197.441406 511.964844 172.761719 499.871094 149 C 493.839844 137.15625 494.226562 136.660156 507.09375 135.835938 C 510.214844 135.632812 513.339844 135.550781 516.300781 135.421875 C 537.941406 137.402344 559.234375 140.40625 580.464844 144.019531 Z M 668.648438 273.53125 C 655.0625 277.738281 641.425781 281.734375 627.832031 285.867188 C 619.527344 288.394531 618.128906 285.160156 617.796875 278.429688 C 616.261719 247.453125 611.863281 216.875 604.316406 186.796875 C 601.21875 174.445312 597.3125 162.292969 593.773438 150.050781 C 608.289062 160.648438 618.890625 174.328125 629.316406 188.132812 C 646.554688 210.953125 660.960938 235.515625 674.167969 260.863281 C 678.121094 268.457031 676.511719 271.09375 668.648438 273.53125 Z M 681.945312 277.867188 C 689.695312 296.273438 697.414062 314.683594 702.902344 336.046875 C 675.480469 327.589844 650.023438 320.285156 623.769531 316.285156 C 621.484375 315.9375 620.132812 314.792969 619.320312 312.582031 C 615.0625 300.945312 619.628906 292.03125 631.789062 289.0625 C 645.941406 285.605469 659.792969 281.25 673.429688 276.152344 C 676.535156 274.988281 679.828125 272.84375 681.945312 277.867188 Z M 614.207031 345.328125 C 611.53125 394.039062 604.160156 441.9375 592.355469 489.21875 C 590.453125 496.832031 584.921875 498.269531 579.234375 497.894531 C 573.023438 497.480469 575.367188 491.371094 575.371094 487.792969 C 575.480469 431.109375 568.757812 375.210938 556.707031 319.886719 C 555.4375 314.066406 555.804688 309.972656 564.113281 311.460938 C 579.066406 314.132812 594.179688 315.921875 609.234375 317.996094 C 613.886719 318.636719 614.394531 321.601562 614.265625 325.511719 C 614.050781 332.109375 614.207031 338.71875 614.207031 345.328125 Z M 581.324219 511.3125 C 579.015625 510.558594 574.9375 511.914062 575.613281 507.398438 C 576.347656 502.507812 580.515625 502.25 584.378906 502.070312 C 586.75 501.957031 588.5 502.707031 587.808594 505.832031 C 586.539062 508.542969 586.648438 513.054688 581.324219 511.3125 Z M 583.453125 520.632812 C 581.386719 526.390625 579.394531 532.171875 577.371094 537.945312 C 576.671875 537.902344 575.976562 537.855469 575.277344 537.8125 C 575.277344 531.617188 575.277344 525.417969 575.277344 519.222656 C 575.277344 515.984375 576.75 515.003906 579.875 515.914062 C 582.359375 516.640625 584.710938 517.128906 583.453125 520.632812 Z M 437.023438 498.082031 C 429.632812 498.292969 430.765625 493.015625 431.042969 488.710938 C 432.820312 460.910156 433.195312 433.074219 435.105469 405.230469 C 435.105469 377.394531 435.265625 349.554688 434.980469 321.71875 C 434.917969 315.535156 436.566406 313.625 443.050781 313.183594 C 469.402344 311.402344 495.902344 311.570312 522.101562 307.601562 C 523.464844 307.394531 524.882812 307.523438 526.273438 307.503906 C 547.804688 307.1875 549.257812 308.003906 553.664062 328.777344 C 560.636719 361.632812 564.664062 394.890625 567.820312 428.34375 C 569.75 448.808594 568.304688 469.402344 571.480469 489.71875 C 572.730469 497.714844 568.84375 499.453125 561.765625 500.597656 C 519.988281 507.339844 478.628906 496.882812 437.023438 498.082031 Z M 492.144531 504.671875 C 473.816406 507.3125 455.570312 509.667969 437.140625 508.761719 C 434.636719 508.636719 430.988281 509.769531 431.125 505.238281 C 431.230469 501.660156 434.183594 501.949219 436.507812 502.050781 C 455.054688 502.867188 473.597656 503.785156 492.144531 504.671875 Z M 427.328125 489.457031 C 427.453125 495.898438 424.96875 497.953125 418.640625 497.621094 C 408.570312 497.089844 398.429688 496.875 388.371094 497.429688 C 381.132812 497.828125 378.667969 495.757812 378.777344 488.234375 C 379.179688 460.375 383.011719 348.953125 382.738281 321.082031 C 382.679688 315.082031 384.652344 313.203125 390.523438 313.464844 C 400.257812 313.890625 410.066406 314.179688 419.765625 313.476562 C 428.378906 312.851562 431.289062 315.433594 430.890625 324.382812 C 428.894531 368.929688 430.398438 413.566406 427.78125 458.113281 C 427.167969 468.535156 427.128906 479.015625 427.328125 489.457031 Z M 365.621094 498.195312 C 335.03125 499.179688 304.457031 500.847656 273.898438 502.625 C 263.199219 503.246094 259.257812 498.792969 257.058594 488.292969 C 246.136719 436.1875 241.375 383.441406 238.695312 330.425781 C 237.695312 310.640625 238.054688 311.90625 257.511719 309.195312 C 277.5 306.410156 297.042969 308.789062 316.769531 309.832031 C 333.261719 310.703125 353.234375 312.355469 370.339844 313.175781 C 373.046875 313.304688 375.175781 315.542969 375.175781 318.253906 L 375.167969 487.585938 C 375.269531 494.90625 373.804688 497.929688 365.621094 498.195312 Z M 369.027344 508.738281 C 351.546875 507.996094 334.070312 507.113281 316.59375 506.273438 C 316.59375 505.660156 316.597656 505.042969 316.597656 504.429688 C 334.136719 503.621094 351.675781 502.773438 369.21875 502.058594 C 371.425781 501.96875 374.460938 501.34375 374.738281 504.972656 C 375.074219 509.394531 371.609375 508.847656 369.027344 508.738281 Z M 195.003906 504.714844 C 194.421875 501.257812 193.566406 496.617188 200.183594 497.65625 C 211.738281 499.46875 223.335938 500.992188 234.910156 502.652344 C 239.984375 503.378906 245.050781 504.144531 250.121094 504.894531 C 250.234375 505.527344 250.34375 506.160156 250.453125 506.789062 C 233.332031 510.066406 216.3125 514.226562 199.039062 516.175781 C 192.308594 516.933594 195.695312 508.8125 195.003906 504.714844 Z M 244.171875 499.210938 C 230.390625 496.070312 216.257812 494.261719 202.183594 492.707031 C 195.308594 491.945312 194.601562 488.683594 195.304688 483.074219 C 196.085938 476.867188 196.28125 470.585938 196.730469 464.332031 C 198.273438 415.886719 205.851562 368.339844 217.523438 321.339844 C 219.367188 313.910156 223.832031 313.054688 229.578125 313.414062 C 236.1875 313.828125 233.898438 319.601562 234.257812 323.035156 C 236.144531 341.015625 235.074219 359.09375 236.589844 377.1875 C 239.78125 415.203125 244.875 452.851562 252.769531 490.117188 C 254.582031 498.671875 254.070312 501.464844 244.171875 499.210938 Z M 230.820312 295.25 C 226.84375 294.78125 225.367188 292.769531 226.753906 288.890625 C 228.789062 283.214844 230.816406 277.539062 232.847656 271.867188 C 233.53125 272.050781 234.210938 272.230469 234.894531 272.414062 C 234.894531 278.242188 234.9375 284.070312 234.878906 289.894531 C 234.851562 292.613281 235.242188 295.773438 230.820312 295.25 Z M 228.199219 299.101562 C 231.207031 299.410156 233.753906 299.945312 233.632812 303.730469 C 233.476562 308.46875 230.015625 308.039062 226.902344 308.039062 C 224.558594 308.035156 221.503906 308.613281 222.175781 304.65625 C 222.722656 301.433594 223.96875 298.667969 228.199219 299.101562 Z M 372.808594 308.285156 C 354.113281 308.699219 335.550781 306.832031 316.984375 304.347656 C 335.730469 304.199219 354.292969 301.984375 372.9375 301.300781 C 375.46875 301.207031 379.058594 300.414062 378.96875 304.828125 C 378.882812 309.132812 375.378906 308.226562 372.808594 308.285156 Z M 421.757812 508.789062 C 415.164062 508.8125 408.574219 508.796875 401.984375 508.796875 C 401.984375 508.78125 401.984375 508.765625 401.984375 508.75 C 395.738281 508.75 389.496094 508.796875 383.253906 508.726562 C 381.082031 508.703125 379.039062 508.207031 379.046875 505.363281 C 379.058594 502.542969 381.085938 501.988281 383.257812 501.980469 C 396.09375 501.933594 408.929688 501.941406 421.761719 501.988281 C 423.929688 501.996094 426.058594 502.441406 425.960938 505.296875 C 425.871094 507.898438 424.085938 508.78125 421.757812 508.789062 Z M 425.417969 521.65625 C 423.539062 554.640625 421.972656 587.640625 420.074219 620.621094 C 419.296875 634.148438 417.726562 647.636719 417.007812 661.167969 C 416.753906 665.984375 415.464844 668.199219 410.398438 667.785156 C 406.59375 667.476562 402.746094 667.734375 398.917969 667.734375 C 381.335938 667.734375 381.125 667.738281 380.902344 649.652344 C 380.65625 629.472656 378.976562 545.265625 378.664062 523.351562 C 378.570312 516.921875 379.898438 513.84375 387.179688 514.265625 C 397.585938 514.871094 408.058594 514.714844 418.484375 514.378906 C 424.082031 514.199219 425.726562 516.289062 425.417969 521.65625 Z M 388.265625 301.292969 C 394.859375 301.257812 401.449219 301.28125 408.042969 301.28125 C 408.042969 301.265625 408.042969 301.253906 408.042969 301.238281 C 413.59375 301.238281 419.148438 301.148438 424.699219 301.28125 C 427.273438 301.34375 430.710938 300.570312 430.601562 304.980469 C 430.515625 308.292969 427.996094 308.652344 425.488281 308.835938 C 413.003906 309.753906 400.523438 309.511719 388.050781 308.589844 C 385.972656 308.4375 383.777344 308.171875 383.597656 305.355469 C 383.390625 302.019531 385.59375 301.304688 388.265625 301.292969 Z M 435.425781 304.382812 C 435.773438 300.738281 438.769531 301.210938 440.972656 301.527344 C 456.746094 303.777344 472.671875 303.140625 488.433594 304.4375 C 472.710938 309.171875 456.746094 307.621094 440.949219 308.417969 C 438.214844 308.558594 435.015625 308.664062 435.425781 304.382812 Z M 614.203125 312.113281 C 613.636719 315.652344 610.339844 313.101562 608.167969 312.777344 C 590.824219 310.203125 573.46875 307.671875 553.578125 304.753906 C 573.308594 301.152344 590.550781 297.960938 607.8125 294.910156 C 610.003906 294.523438 613.429688 293.292969 613.921875 296.660156 C 614.65625 301.742188 615.011719 307.089844 614.203125 312.113281 Z M 546.230469 293.015625 C 547.691406 298.722656 545.636719 301.703125 539.597656 301.667969 C 535.421875 301.640625 531.242188 301.660156 527.066406 301.660156 C 498.601562 300.378906 470.246094 296.792969 441.679688 297.628906 C 436.707031 297.773438 434.992188 295.953125 435.074219 291.007812 C 435.847656 243.980469 433.757812 196.992188 432.691406 149.996094 C 432.554688 143.964844 434.703125 142.433594 440.441406 142.144531 C 454.65625 141.421875 468.867188 140.21875 483.003906 138.542969 C 487.738281 137.984375 489.90625 139.453125 491.867188 143.304688 C 516.167969 190.96875 533.003906 241.335938 546.230469 293.015625 Z M 437.832031 138.503906 C 434.789062 138.949219 432.234375 138.296875 432.082031 134.394531 C 431.921875 130.277344 434.707031 130.011719 437.644531 130.160156 C 452.417969 130.898438 467.191406 131.703125 481.960938 132.488281 C 467.585938 137.8125 452.484375 136.351562 437.832031 138.503906 Z M 477.429688 128.089844 C 463.191406 127.492188 448.964844 126.707031 434.734375 125.988281 C 432.191406 125.855469 431.175781 124.359375 431.011719 121.949219 C 429.582031 100.558594 428.121094 79.167969 426.515625 55.507812 C 449.964844 75.839844 466.171875 98.558594 480.179688 123.0625 C 482.40625 126.957031 481.15625 128.246094 477.429688 128.089844 Z M 422.890625 138.625 C 418.394531 138.621094 413.898438 138.625 409.402344 138.625 C 409.402344 138.648438 409.402344 138.671875 409.402344 138.695312 C 405.945312 138.695312 402.480469 138.800781 399.03125 138.65625 C 396.746094 138.558594 393.75 138.964844 394.191406 135.128906 C 394.46875 132.71875 394.824219 129.945312 398.058594 129.910156 C 406.699219 129.824219 415.339844 129.898438 423.980469 130.046875 C 426.640625 130.089844 427.140625 132.097656 427.277344 134.375 C 427.464844 137.601562 425.726562 138.625 422.890625 138.625 Z M 401.84375 143.128906 C 402.867188 143.289062 403.925781 143.234375 404.972656 143.242188 C 428.441406 143.4375 428.65625 143.433594 429.117188 167.679688 C 429.472656 186.136719 430.738281 266.953125 431.140625 288.886719 C 431.273438 296.3125 428.128906 297.546875 421.71875 297.160156 C 411.65625 296.554688 401.539062 296.382812 391.464844 296.671875 C 385.777344 296.835938 384.210938 294.753906 384.480469 289.398438 C 385.632812 266.449219 386.199219 243.46875 387.605469 220.539062 C 389.035156 197.273438 391.457031 174.066406 392.878906 150.800781 C 393.28125 144.179688 395.8125 142.171875 401.84375 143.128906 Z M 382.417969 138.570312 C 363.863281 137.339844 345.320312 135.914062 326.769531 134.554688 C 326.886719 133.761719 327.003906 132.964844 327.121094 132.167969 C 345.441406 131.363281 363.757812 130.46875 382.085938 129.855469 C 385.03125 129.753906 389.515625 128.046875 389.652344 133.957031 C 389.78125 139.636719 385.652344 138.785156 382.417969 138.570312 Z M 381.386719 142.492188 C 386.171875 142.484375 388.953125 143.132812 388.515625 149.464844 C 385.308594 195.980469 382.46875 242.523438 379.699219 289.066406 C 379.390625 294.253906 378.632812 297.597656 372.238281 297.484375 C 342.300781 296.9375 312.472656 299.144531 287.640625 301.601562 C 269.710938 302.191406 257.1875 298.621094 244.390625 297.542969 C 236.960938 296.917969 239.753906 291.730469 239.429688 287.480469 C 235.722656 238.554688 262.71875 200.285156 282.945312 159.46875 C 292.195312 140.792969 303.058594 131.621094 325.371094 137.65625 C 343.363281 142.523438 362.558594 142.539062 381.386719 142.492188 Z M 245.9375 221.796875 C 243.574219 209.964844 247.53125 198.605469 249.425781 187.292969 C 251.753906 173.40625 256.199219 159.894531 259.238281 146.109375 C 260.488281 140.441406 262.902344 137.808594 268.933594 137.882812 C 276.144531 137.96875 283.195312 134.71875 292.230469 136.789062 C 274.449219 164.761719 259.664062 192.835938 245.9375 221.796875 Z M 263.65625 117.433594 C 262.140625 120.828125 259.148438 120.234375 256.523438 119.175781 C 250.183594 116.621094 243.328125 115.15625 237.292969 110.359375 C 249.488281 100.824219 261.839844 92.234375 278.1875 84.113281 C 272.546875 97.078125 268.179688 107.289062 263.65625 117.433594 Z M 237.367188 115.980469 C 242.347656 118.390625 247.613281 120.207031 252.675781 122.453125 C 255.582031 123.738281 260.398438 123.300781 259.738281 128.414062 C 259.128906 133.160156 255.683594 135.183594 251.125 135.921875 C 237.445312 138.136719 223.804688 140.628906 210.109375 142.746094 C 206.457031 143.3125 203.097656 146.203125 197.316406 143.429688 C 207.953125 134.195312 217.804688 125.585938 227.726562 117.0625 C 230.613281 114.585938 233.730469 114.226562 237.367188 115.980469 Z M 252.402344 140.257812 C 253.320312 140.160156 254.3125 140.804688 255.609375 141.210938 C 245.769531 174.917969 240.507812 209.238281 236.429688 243.933594 C 234.605469 259.445312 227.089844 274.285156 222.152344 289.429688 C 221.050781 292.8125 218.890625 293.046875 215.613281 292.378906 C 182.234375 285.550781 149.335938 277.285156 118.378906 262.492188 C 112.726562 259.792969 111.691406 257.710938 114.84375 251.925781 C 134.042969 216.664062 157.800781 184.789062 185.183594 155.539062 C 186.804688 153.808594 188.847656 151.832031 191.003906 151.34375 C 211.304688 146.761719 231.664062 142.429688 252.402344 140.257812 Z M 116.382812 238.957031 C 114.320312 242.550781 112.445312 246.265625 110.230469 249.761719 C 108.808594 252.011719 108.875 256.496094 104.015625 254.410156 C 99.976562 252.675781 99.375 249.707031 100.523438 245.910156 C 102.921875 237.957031 105.167969 229.957031 107.738281 222.058594 C 109.5625 216.464844 112.386719 211.152344 113.785156 205.472656 C 121.890625 172.542969 145.007812 158.796875 178.054688 155.976562 C 153.6875 181.617188 133.488281 209.152344 116.382812 238.957031 Z M 101.027344 258.039062 C 103.09375 258.921875 105.441406 259.757812 103.511719 263.132812 C 100.742188 267.988281 99.34375 273.625 95.121094 278.273438 C 92.714844 271.761719 96.476562 266.492188 96.789062 260.871094 C 96.910156 258.664062 98.480469 256.953125 101.027344 258.039062 Z M 87.902344 355.84375 C 87.871094 351.652344 87.390625 347.632812 92.613281 345.625 C 130.121094 331.191406 169.171875 322.851562 208.777344 315.921875 C 213.617188 315.339844 214.539062 317.582031 213.292969 322.09375 C 203.300781 358.316406 197.589844 395.320312 193.914062 432.632812 C 192.28125 449.226562 191.769531 465.941406 191.1875 482.621094 C 190.988281 488.296875 189.941406 490.90625 183.429688 489.511719 C 159.464844 484.386719 135.675781 478.664062 112.304688 471.222656 C 107.246094 469.613281 104.035156 467.257812 102.683594 461.800781 C 94.066406 426.988281 88.191406 391.8125 87.902344 355.84375 Z M 184.777344 494.261719 C 192.941406 495.558594 191.167969 502.03125 190.882812 507.195312 C 190.613281 512.027344 193.710938 517.84375 184.78125 519.988281 C 168.316406 523.9375 152.203125 529.433594 136.078125 534.699219 C 132.191406 535.96875 129.554688 536.589844 127.671875 532.238281 C 119.738281 513.910156 112.355469 495.394531 106.835938 474.75 C 133.328125 482.738281 158.664062 490.117188 184.777344 494.261719 Z M 151.402344 533.667969 C 161.304688 530.554688 171.414062 528.113281 181.308594 524.980469 C 188.199219 522.796875 191.335938 523.132812 191.878906 532.070312 C 194.105469 568.8125 199.429688 605.136719 210.003906 640.527344 C 212.152344 647.726562 214.488281 654.867188 216.742188 662.035156 C 184.8125 631.800781 160.34375 597.0625 140.640625 558.953125 C 130.972656 540.25 131.167969 540.03125 151.402344 533.667969 Z M 263.75 518.441406 C 262.269531 512.707031 262.90625 510.5 269.632812 509.160156 C 283.738281 506.355469 297.492188 509.636719 311.121094 510.875 C 329.835938 512.574219 348.621094 511.492188 367.296875 513.847656 C 373.863281 514.671875 375.199219 516.683594 375.128906 522.636719 C 374.847656 545.597656 376.929688 636.722656 377.25 659.320312 C 377.332031 665.242188 376.386719 667.921875 369.570312 668.207031 C 356.402344 668.761719 343.253906 670.292969 330.15625 671.898438 C 323.371094 672.734375 319.617188 670.644531 316.425781 664.285156 C 293.074219 617.738281 276.726562 568.71875 263.75 518.441406 Z M 372.484375 672.601562 C 375.398438 672.421875 377.203125 673.214844 377.40625 676.386719 C 377.632812 679.917969 375.292969 680.375 372.671875 680.257812 C 357.472656 679.578125 342.277344 678.835938 327.078125 678.117188 C 342.09375 673.765625 357.320312 673.53125 372.484375 672.601562 Z M 372.898438 684.433594 C 376.546875 684.441406 378.738281 686.046875 379.003906 689.957031 C 380.386719 710.375 381.828125 730.792969 383.191406 751.214844 C 383.222656 751.699219 382.542969 752.230469 381.410156 753.882812 C 358.820312 733.824219 341.851562 709.960938 328.121094 684.425781 C 343.292969 684.425781 358.097656 684.414062 372.898438 684.433594 Z M 386.761719 671.910156 C 395.019531 671.734375 403.277344 671.679688 411.53125 671.636719 C 413.941406 671.625 415.445312 672.773438 415.320312 675.378906 C 415.199219 677.890625 414.796875 680.363281 411.539062 680.449219 C 407.410156 680.558594 403.28125 680.476562 399.152344 680.476562 C 399.152344 680.441406 399.152344 680.410156 399.152344 680.375 C 395.367188 680.375 391.578125 680.402344 387.792969 680.367188 C 385.296875 680.34375 382.882812 680.179688 382.777344 676.742188 C 382.691406 673.914062 383.761719 671.972656 386.761719 671.910156 Z M 418.320312 691.332031 C 418.6875 686.8125 420.558594 685.375 424.734375 685.207031 C 451.046875 684.164062 477.355469 683.003906 506.511719 681.757812 C 480.113281 717.445312 452.023438 747.082031 414.390625 766.40625 C 412.667969 767.289062 410.636719 769.21875 408.917969 767.246094 C 408.09375 766.300781 408.515625 763.984375 408.828125 762.375 C 413.417969 738.882812 416.371094 715.167969 418.320312 691.332031 Z M 420.40625 676.367188 C 420.605469 671.742188 423.800781 671.757812 427.019531 672 C 440.503906 673.015625 453.980469 674.128906 467.460938 675.183594 C 471.5625 675.503906 475.667969 675.746094 479.769531 676.027344 C 461.984375 680.875 443.976562 680.261719 426.015625 680.40625 C 423.273438 680.429688 420.21875 680.707031 420.40625 676.367188 Z M 502.917969 675.285156 C 478.96875 670.789062 454.675781 668.707031 430.359375 668.042969 C 421.359375 667.800781 420.925781 665.015625 421.539062 657.15625 C 424.449219 619.699219 426.511719 582.179688 428.832031 544.679688 C 429.070312 540.863281 428.925781 537.019531 429.105469 533.195312 C 429.96875 515.011719 430.039062 515.589844 447.640625 514.015625 C 473.9375 511.664062 500.359375 511.695312 526.675781 508.980469 C 539.445312 507.660156 552.785156 511.6875 565.847656 513.4375 C 569.875 513.976562 570.277344 516.859375 570.097656 520.414062 C 569.796875 526.316406 570.015625 532.242188 570.015625 538.160156 C 571.863281 554.347656 566.839844 568.921875 560.464844 583.488281 C 547.351562 613.464844 532.710938 642.566406 514.757812 669.96875 C 511.734375 674.585938 508.902344 676.410156 502.917969 675.285156 Z M 564.175781 588.277344 C 566.34375 600.195312 562.335938 611.582031 560.523438 622.976562 C 558.421875 636.203125 553.828125 649.015625 551.25 662.191406 C 549.804688 669.582031 546.351562 672.878906 539.050781 673.277344 C 532.144531 673.652344 525.269531 674.613281 516.472656 675.515625 C 535.121094 646.742188 550.152344 617.933594 564.175781 588.277344 Z M 555.4375 692.226562 C 560.933594 694.871094 570.085938 695.1875 571.078125 700.316406 C 571.929688 704.734375 563.074219 707.738281 558.3125 710.996094 C 550.175781 716.5625 541.601562 721.492188 533.210938 726.691406 C 532.816406 726.125 532.417969 725.554688 532.023438 724.988281 C 536.246094 715.523438 540.882812 706.21875 544.542969 696.542969 C 546.878906 690.363281 550.042969 689.636719 555.4375 692.226562 Z M 556.945312 688.242188 C 554.226562 686.945312 549.351562 687.53125 550.226562 682.128906 C 551.019531 677.242188 554.035156 675.800781 558.808594 675.0625 C 576.5625 672.320312 594.222656 668.976562 611.917969 665.855469 C 612.3125 666.363281 612.707031 666.867188 613.101562 667.371094 C 602.320312 676.535156 591.5 685.65625 580.777344 694.894531 C 578.148438 697.160156 575.894531 696.292969 573.203125 695.074219 C 567.851562 692.644531 562.246094 690.765625 556.945312 688.242188 Z M 554.050781 670.78125 C 564.199219 634.984375 569.585938 599.976562 573.765625 564.613281 C 575.476562 550.140625 582.949219 536.382812 587.453125 522.191406 C 589.050781 517.160156 592.605469 518.121094 595.804688 518.757812 C 628.863281 525.328125 661.304688 533.914062 691.980469 548.324219 C 697.5 550.917969 697.917969 553.675781 695.125 558.789062 C 675.886719 593.988281 652.457031 626.085938 624.773438 655.097656 C 622.878906 657.078125 621.058594 658.910156 618.03125 659.585938 C 597.441406 664.203125 576.820312 668.5625 554.050781 670.78125 Z M 680.910156 591.84375 C 687.308594 581.546875 693.3125 571.003906 699.539062 560.59375 C 701.035156 558.097656 701.769531 554.234375 706.261719 556.527344 C 709.660156 558.261719 710.371094 561.097656 709.472656 564.425781 C 702.605469 589.992188 693.285156 614.589844 680.4375 637.796875 C 679.179688 640.070312 677.324219 641.5625 675.015625 642.414062 C 661.765625 647.316406 648.488281 652.148438 633.949219 654.246094 C 650.691406 634.027344 667.167969 613.960938 680.910156 591.84375 Z M 708.839844 552.796875 C 706.511719 551.804688 704.707031 550.546875 706.40625 547.367188 C 709.085938 542.363281 711.402344 537.164062 715.023438 529.671875 C 716.636719 538.632812 713.691406 544.046875 713.039062 549.769531 C 712.832031 551.585938 711.671875 554 708.839844 552.796875 Z M 702.726562 543.875 C 700.894531 547.648438 698.40625 546.953125 695.132812 545.339844 C 664.386719 530.214844 631.613281 521.480469 598.171875 514.847656 C 595.171875 514.253906 590.554688 514.582031 591.644531 509.015625 C 592.359375 505.359375 592.066406 500.820312 597.09375 500.089844 C 639.519531 493.957031 680.980469 483.914062 721.308594 469.023438 C 725.554688 497.066406 714.097656 520.464844 702.726562 543.875 Z M 708.710938 468.527344 C 675.316406 480.023438 640.984375 487.574219 606.371094 494.023438 C 595.28125 496.089844 595.109375 495.53125 597.859375 484.605469 C 610.632812 433.859375 617.027344 382.230469 618.699219 330.003906 C 618.929688 322.792969 619.527344 319.976562 628.238281 321.777344 C 651.921875 326.679688 675.285156 332.53125 698.324219 339.878906 C 703.3125 341.46875 705.859375 344.078125 707.089844 348.820312 C 715.601562 381.550781 720.378906 414.835938 722.292969 450.742188 C 725.554688 460.570312 718.917969 465.011719 708.710938 468.527344 Z M 750.945312 364.898438 C 771.632812 372.480469 785.308594 390.839844 784.941406 409.097656 C 784.75 418.625 779.394531 425.191406 773.375 431.539062 C 764.257812 441.160156 753.324219 448.109375 740.277344 454.457031 C 746.28125 424.089844 751.914062 395.003906 750.945312 364.898438 Z M 735.839844 231.972656 C 762.628906 278.285156 778.617188 327.179688 782.230469 380.1875 C 773.128906 372.4375 764.34375 365.175781 754.449219 359.472656 C 750.5 357.199219 750.84375 353.980469 750.902344 350.558594 C 751.511719 314.160156 744.683594 278.9375 734.105469 244.304688 C 732.53125 239.15625 732.609375 239.132812 735.839844 231.972656 Z M 745.183594 328.050781 C 745.574219 334.292969 746.035156 340.527344 746.375 345.457031 C 748.015625 353.726562 745.425781 354.976562 739.660156 351.53125 C 739.359375 351.351562 739.066406 351.125 738.742188 351.039062 C 715.921875 344.941406 701.878906 331.324219 698.03125 307.058594 C 696.546875 297.710938 691.605469 288.773438 687.402344 280.050781 C 684.550781 274.132812 684.855469 271.125 691.441406 268.378906 C 702.984375 263.574219 713.671875 257 722.949219 248.527344 C 727.523438 244.351562 729.074219 244.691406 730.925781 250.886719 C 738.464844 276.121094 743.53125 301.753906 745.183594 328.050781 Z M 730.824219 214.984375 C 726.136719 208.179688 721.449219 201.375 716.757812 194.570312 C 725.402344 198.660156 730.023438 205.53125 730.824219 214.984375 Z M 694.039062 157.324219 C 700.066406 164.882812 706.097656 172.445312 712.125 180.003906 C 700.328125 177.011719 699.15625 165.605469 691.066406 159.679688 C 692.058594 158.894531 693.050781 158.109375 694.039062 157.324219 Z M 705.679688 190.207031 C 712.480469 203.832031 719.039062 217.523438 724.570312 231.738281 C 726.550781 236.832031 725.988281 240.070312 722.175781 243.628906 C 711.871094 253.242188 699.714844 259.832031 687.179688 265.917969 C 681.015625 268.914062 680.171875 263.824219 678.480469 260.375 C 664.210938 231.273438 647.234375 203.851562 627.285156 178.308594 C 619.839844 168.777344 611.929688 159.609375 602.59375 148.289062 C 634.496094 155.109375 663.078125 163.011719 690.25 175.609375 C 697.183594 178.824219 702.230469 183.292969 705.679688 190.207031 Z M 681.085938 159.476562 C 683.65625 162.140625 686.03125 164.988281 688.496094 167.75 C 662.597656 158.824219 636.960938 150.464844 610.523438 145.753906 C 594.660156 142.929688 586.390625 134.183594 580.648438 120.546875 C 578.761719 116.066406 579.074219 113.605469 583.347656 111.324219 C 586.078125 109.867188 589.472656 108.300781 590.824219 105.828125 C 598.75 91.351562 606.925781 99.054688 615.578125 104.847656 C 639.347656 120.757812 661.230469 138.894531 681.085938 159.476562 Z M 600.929688 80.550781 C 618.90625 87.300781 661.082031 123.722656 671.820312 142.042969 C 668.375 141.984375 666.953125 139.492188 665.167969 137.894531 C 647.28125 121.925781 628.386719 107.265625 607.796875 94.964844 C 601.832031 91.398438 599.496094 87.167969 600.929688 80.550781 Z M 595.992188 85.839844 C 573.941406 72.488281 546.828125 68.71875 528.101562 49.234375 C 553.238281 56.875 580.808594 59.949219 595.992188 85.839844 Z M 522.589844 53.699219 C 505.402344 49.769531 488.675781 44.890625 471.765625 40.683594 C 489.398438 42.492188 508.117188 39.78125 522.589844 53.699219 Z M 534.890625 64.679688 C 548.496094 70.855469 555.441406 85.976562 563.519531 98.53125 C 566.363281 102.953125 573.09375 109.628906 569.832031 112.339844 C 564.335938 116.910156 559.949219 108.625 555.707031 105.316406 C 523.363281 80.082031 488.367188 59.78125 449.414062 46.5625 C 446.863281 45.699219 444.398438 44.597656 441.890625 43.605469 C 474.238281 45.632812 505.738281 51.453125 534.890625 64.679688 Z M 562.671875 116.753906 C 538.890625 124.09375 517.6875 133.316406 493.710938 128.789062 C 489.734375 128.035156 487.453125 126.152344 485.730469 123.074219 C 469.851562 94.707031 451.148438 68.617188 425.671875 47.914062 C 425.066406 47.421875 425.1875 46.035156 424.667969 43.71875 C 476.390625 56.96875 520.746094 82 562.671875 116.753906 Z M 408.71875 42.921875 C 414.128906 43.789062 420.425781 47.292969 421.105469 55 C 422.378906 69.472656 423.910156 83.921875 425.269531 98.386719 C 425.625 102.183594 425.597656 106.015625 426.015625 109.800781 C 427.8125 126.167969 427.847656 126.164062 411.953125 125.917969 C 394.753906 125.648438 394.746094 125.648438 396.980469 108.542969 C 399.398438 90.027344 401.523438 71.460938 404.53125 53.039062 C 405.09375 49.589844 404.105469 42.183594 408.71875 42.921875 Z M 391.648438 119.273438 C 391.238281 125.691406 387.332031 126.183594 382.375 126.070312 C 356.632812 125.480469 331.015625 127.808594 303.167969 129.667969 C 329.722656 92.300781 359.921875 61.539062 402.273438 40.835938 C 397.207031 68.390625 393.285156 93.691406 391.648438 119.273438 Z M 383.652344 44.492188 C 372.875 52.644531 362.761719 59.792969 353.207031 67.621094 C 334.234375 83.171875 317.894531 101.332031 303.867188 121.367188 C 298.898438 128.460938 293.863281 129.328125 286.3125 127.40625 C 266.335938 122.316406 266.753906 122.707031 274.449219 103.546875 C 281.953125 84.863281 293.9375 72.265625 313.445312 65.246094 C 334.875 57.539062 356.273438 49.964844 378.308594 44.234375 C 379.5625 43.910156 381.019531 44.339844 383.652344 44.492188 Z M 323.167969 45.953125 C 335.144531 44.777344 346.882812 41.222656 359.101562 42.722656 C 340.84375 50.21875 321.730469 54.71875 304.816406 64.804688 C 303.632812 65.507812 300.996094 65.363281 300.050781 64.5 C 298.488281 63.082031 300.171875 61.371094 301.25 60.144531 C 307.199219 53.355469 313.117188 46.941406 323.167969 45.953125 Z M 303.28125 44.957031 C 276.492188 52.601562 250.359375 62.070312 224.730469 72.808594 C 248.085938 55.195312 275.152344 48.527344 303.28125 44.957031 Z M 222.589844 80.183594 C 246.882812 68.375 271.828125 58.492188 298.699219 52.902344 C 292.441406 63.46875 286.675781 73.652344 274.933594 79.421875 C 261.636719 85.953125 249.347656 94.511719 237.441406 103.472656 C 230.699219 108.546875 223.214844 105.433594 216.941406 95.433594 C 212.125 87.757812 215.316406 83.71875 222.589844 80.183594 Z M 209.058594 88.175781 C 211.394531 96.046875 215.804688 102.566406 222.539062 107.25 C 225.828125 109.539062 226.578125 111.109375 223.023438 114.167969 C 210.675781 124.792969 198.707031 135.855469 186.398438 146.527344 C 181.5 150.773438 174.765625 150.570312 168.914062 152.507812 C 158.542969 155.945312 148.015625 158.910156 135.082031 162.816406 C 155.199219 131.171875 175.078125 103.140625 209.058594 88.175781 Z M 151.816406 128.691406 C 137.6875 145.546875 132.867188 171.496094 103.742188 176.089844 C 118.757812 157.441406 134.113281 141.890625 151.816406 128.691406 Z M 91.417969 192.839844 C 99.980469 184.78125 110.175781 178.855469 123.726562 173.8125 C 111.910156 197.265625 103.203125 219.132812 97.113281 241.941406 C 95.375 248.449219 93.125 246.828125 89.496094 243.761719 C 72.261719 229.183594 72.664062 210.488281 91.417969 192.839844 Z M 71.308594 223.160156 C 75.960938 235.582031 82.832031 244.347656 91.847656 251.449219 C 94.886719 253.84375 93.074219 257.4375 92.570312 260.320312 C 87.714844 288.199219 82.980469 316.121094 73.246094 342.855469 C 71.867188 346.644531 70.585938 350.089844 66.21875 352.308594 C 51.414062 359.839844 37.414062 368.679688 25.09375 384.359375 C 28.496094 325.917969 42.917969 273.816406 71.308594 223.160156 Z M 25.609375 398.875 C 29.808594 375.800781 50.402344 367.648438 69.054688 355.894531 C 66.253906 372.464844 63.300781 386.917969 61.496094 401.507812 C 59.722656 415.871094 59.121094 430.375 57.84375 446.894531 C 38.960938 434.722656 21.199219 423.125 25.609375 398.875 Z M 74.742188 575.761719 C 71.335938 577.308594 70.964844 573.453125 69.980469 571.660156 C 45.632812 527.292969 30.542969 480.097656 26.140625 426.585938 C 35.335938 437.277344 43.792969 444.367188 53.425781 449.921875 C 57.339844 452.179688 58.253906 455.535156 58.324219 459.523438 C 58.96875 496.703125 64.984375 533.011719 76.113281 568.480469 C 76.96875 571.207031 77.914062 574.328125 74.742188 575.761719 Z M 79.226562 560.308594 C 71.761719 535.457031 66.253906 510.277344 65.132812 484.335938 C 64.742188 475.339844 61.339844 466.546875 63.550781 456.769531 C 75.140625 461.625 85.882812 466.246094 96.730469 470.597656 C 100.375 472.0625 102.109375 474.667969 103.128906 478.171875 C 108.457031 496.5 115.011719 514.402344 122.875 531.769531 C 125.328125 537.1875 124.4375 539.722656 119.140625 542.011719 C 107.296875 547.121094 96.207031 553.582031 86.570312 562.28125 C 82.941406 565.554688 81.148438 566.714844 79.226562 560.308594 Z M 106.191406 623.816406 C 97.65625 609.210938 91.320312 593.589844 85.015625 577.9375 C 83.277344 573.621094 84.140625 570.695312 87.164062 567.714844 C 97.480469 557.550781 110.003906 550.875 122.9375 544.796875 C 129.347656 541.78125 129.863281 547.429688 131.488281 550.710938 C 146.808594 581.625 165.011719 610.699219 186.628906 637.601562 C 192.671875 645.121094 198.949219 652.449219 207.195312 662.359375 C 172.839844 655.089844 142.3125 646.59375 113.648438 632.140625 C 109.882812 630.242188 108.082031 627.050781 106.191406 623.816406 Z M 122.484375 642.796875 C 143.179688 649.683594 163.632812 656.921875 184.828125 661.742188 C 189.550781 662.816406 194.210938 664.570312 198.984375 664.960938 C 215.492188 666.308594 223.863281 676.652344 229.449219 690.832031 C 230.855469 694.398438 231.214844 697.636719 227.609375 698.484375 C 218.316406 700.679688 215.359375 717.8125 205.304688 712.179688 C 173.667969 694.445312 146.324219 670.835938 122.484375 642.796875 Z M 208.734375 731.195312 C 179.96875 714.207031 156.410156 692.464844 135.164062 666.742188 C 138.871094 666.042969 140.054688 668.546875 141.550781 669.925781 C 160.226562 687.109375 180.199219 702.601562 201.933594 715.699219 C 207.796875 719.234375 209.953125 723.605469 208.734375 731.195312 Z M 213.277344 721.824219 C 235.730469 738.457031 262.703125 741.761719 282.402344 760.277344 C 261.449219 762.511719 217.691406 739.453125 213.277344 721.824219 Z M 284.207031 755.5 C 302.660156 760.320312 318.824219 764.542969 334.988281 768.765625 C 317.9375 768.03125 300.078125 770.453125 284.207031 755.5 Z M 290.476562 752.433594 C 263.113281 745.183594 253.382812 721.871094 239.9375 701.585938 C 239.144531 700.386719 238.609375 699.015625 239.664062 697.789062 C 241.011719 696.21875 242.726562 696.429688 244.359375 697.40625 C 245.25 697.9375 246.089844 698.574219 246.886719 699.242188 C 282.339844 729.019531 321.90625 751.546875 365.648438 767.3125 C 339.832031 765.882812 315.257812 758.996094 290.476562 752.433594 Z M 354.792969 757.582031 C 317.878906 744.132812 284.660156 724.238281 254.046875 699.710938 C 247.953125 694.828125 248.949219 692.652344 255.621094 690.824219 C 274.9375 685.53125 293.910156 678.148438 314.640625 681.707031 C 317.789062 682.246094 320.828125 682.109375 322.617188 685.382812 C 338.742188 714.894531 358.957031 741.183594 384.203125 763.511719 C 384.585938 763.851562 384.4375 764.792969 384.632812 766.074219 C 373.960938 765.304688 364.433594 761.09375 354.792969 757.582031 Z M 400.863281 767.496094 C 396.082031 766.9375 390.292969 763.992188 389.355469 758.539062 C 385.476562 735.929688 384.617188 712.984375 382.882812 690.140625 C 382.558594 685.871094 385.023438 684.835938 388.734375 685 C 392.203125 685.152344 395.683594 685.03125 399.15625 685.03125 C 414.304688 685.882812 414.3125 685.882812 412.90625 701.710938 C 411.191406 721.0625 408.882812 740.335938 404.789062 759.339844 C 404.148438 762.320312 405.703125 768.0625 400.863281 767.496094 Z M 408.519531 786.695312 C 406.652344 786.722656 403.152344 788.289062 403.457031 783.941406 C 403.707031 780.386719 405.859375 779.261719 409.15625 779.878906 C 412.828125 780.566406 416.367188 781.5625 420.390625 784.703125 C 415.972656 787.480469 412.132812 786.644531 408.519531 786.695312 Z M 509.210938 685.378906 C 512.300781 681.101562 515.636719 679.476562 520.398438 682.722656 C 521.214844 683.28125 522.363281 683.386719 523.375 683.625 C 543.460938 688.386719 543.046875 688.21875 535.378906 706.910156 C 528.105469 724.644531 517.449219 737.757812 498.507812 744.621094 C 475.535156 752.949219 452.988281 762.261719 428.464844 765.207031 C 460.914062 743.683594 486.839844 716.332031 509.210938 685.378906 Z M 444.859375 769.625 C 467.144531 762.039062 489.316406 754.167969 511.074219 745.128906 C 495.773438 772.609375 468.132812 764.859375 444.859375 769.625 Z M 509.355469 765.105469 C 534.375 757.476562 559 748.714844 583.257812 738.917969 C 561.335938 755.382812 535.90625 761.84375 509.355469 765.105469 Z M 588.03125 730.164062 C 562.828125 742.484375 536.90625 752.691406 508.644531 759.53125 C 517.882812 743.945312 529.210938 733.066406 544.300781 725.53125 C 554.421875 720.472656 563.386719 713.09375 572.84375 706.71875 C 579.324219 702.351562 587.367188 705.921875 593.015625 715.511719 C 597.105469 722.460938 595.300781 726.609375 588.03125 730.164062 Z M 623.554688 709.285156 C 620.386719 711.417969 616.996094 713.242188 613.957031 715.539062 C 606.246094 721.367188 599.949219 724.035156 595.042969 711.90625 C 593.144531 707.21875 587.523438 704.039062 583.875 700.441406 C 607.9375 673.667969 635.40625 653.230469 671.878906 650.027344 C 667.628906 663.660156 639.503906 698.550781 623.554688 709.285156 Z M 657.410156 682.089844 C 672.035156 665.28125 677.144531 639.171875 703.8125 634.84375 C 700.40625 643.886719 673.734375 672.003906 657.410156 682.089844 Z M 727.78125 605.492188 C 718.644531 621.089844 704.082031 628.890625 688.148438 635.40625 C 698.113281 613.066406 706.867188 590.835938 713.027344 567.660156 C 714.164062 563.386719 715.609375 563.714844 718.652344 565.648438 C 732.808594 574.652344 736.195312 591.121094 727.78125 605.492188 Z M 719.941406 561.066406 C 716.765625 558.546875 716.347656 556.15625 716.96875 552.199219 C 721.535156 523.1875 727.351562 494.488281 736.855469 466.640625 C 737.9375 463.472656 739.046875 460.519531 742.722656 458.769531 C 758.117188 451.433594 771.992188 441.878906 785.105469 426.257812 C 780.980469 485.125 766.789062 537.582031 738.09375 588.359375 C 734.46875 575.667969 728.167969 567.589844 719.941406 561.066406 Z M 719.941406 561.066406 " fill-opacity="1" fill-rule="nonzero"/></g></svg>